<?xml version="1.0" encoding="UTF-8" standalone="no"?>
<svg
   xmlns:dc="http://purl.org/dc/elements/1.1/"
   xmlns:cc="http://creativecommons.org/ns#"
   xmlns:rdf="http://www.w3.org/1999/02/22-rdf-syntax-ns#"
   xmlns:svg="http://www.w3.org/2000/svg"
   xmlns="http://www.w3.org/2000/svg"
   xmlns:sodipodi="http://sodipodi.sourceforge.net/DTD/sodipodi-0.dtd"
   xmlns:inkscape="http://www.inkscape.org/namespaces/inkscape"
   version="1.1"
   width="24"
   height="24"
   viewBox="0 0 24 24"
   id="svg4"
   sodipodi:docname="send.svg"
   inkscape:version="0.92.1 r15371">
  <metadata
     id="metadata10">
    <rdf:RDF>
      <cc:Work
         rdf:about="">
        <dc:format>image/svg+xml</dc:format>
        <dc:type
           rdf:resource="http://purl.org/dc/dcmitype/StillImage" />
      </cc:Work>
    </rdf:RDF>
  </metadata>
  <defs
     id="defs8" />
  <sodipodi:namedview
     pagecolor="#ffffff"
     bordercolor="#666666"
     borderopacity="1"
     objecttolerance="10"
     gridtolerance="10"
     guidetolerance="10"
     inkscape:pageopacity="0"
     inkscape:pageshadow="2"
     inkscape:window-width="1366"
     inkscape:window-height="717"
     id="namedview6"
     showgrid="false"
     inkscape:zoom="9.9100557"
     inkscape:cx="32.784288"
     inkscape:cy="18.692916"
     inkscape:window-x="0"
     inkscape:window-y="27"
     inkscape:window-maximized="1"
     inkscape:current-layer="svg4" />
  <path
     style="opacity:1;fill:#000000;fill-opacity:1;stroke:none;stroke-width:48.08682251;stroke-linecap:round;stroke-linejoin:round;stroke-miterlimit:4;stroke-dasharray:none;stroke-opacity:1"
     d="m 6.188628,4.5136141 0.00162,0.00162 c -0.00938,0.00999 -0.015856,0.023851 -0.027619,0.030868 -0.00771,0.0046 -0.018654,0.00113 -0.027619,0.00162 -0.00219,1.188e-4 -0.00431,-5.33e-5 -0.0065,0 -0.00373,0.00124 -0.00766,0.00195 -0.011373,0.00325 4.141e-4,0.0033 0.00108,0.00652 0.00162,0.00975 1.515e-4,8.818e-4 -0.00236,-1.6e-6 -0.00325,0 -0.00273,-10e-7 -0.00539,2.3e-6 -0.00812,0 -0.00546,-4.5e-6 -0.010793,7.3e-6 -0.016247,0 -0.022596,0.00847 -0.045293,0.016942 -0.068235,0.02437 -0.0053,0.00186 -0.00938,0.00287 -0.014622,0.00487 -0.0047,0.0018 -0.00986,0.00487 -0.014622,0.0065 h -0.00162 c -0.00319,0.00156 -0.00668,0.00307 -0.00975,0.00487 -0.00932,0.00549 -0.016503,0.0085 -0.027619,0.012997 -0.00294,-1.239e-4 -0.00554,-3.665e-4 -0.00812,0 -0.00329,0.00152 -0.00645,0.00336 -0.00975,0.00487 7.408e-4,0.00136 0.00258,0.00188 0.00325,0.00325 0.00276,0.00562 -0.00864,0.0085 -0.012997,0.012997 -0.00661,0.00374 -0.014295,0.00803 -0.021121,0.011372 -0.021246,0.010417 -0.044532,0.020841 -0.066611,0.029244 -0.00951,0.00362 -0.020118,0.00525 -0.029244,0.00975 -0.035322,0.017412 -0.038065,0.024541 -0.068235,0.053613 -0.017556,0.01771 -0.065485,0.067405 -0.084482,0.081232 -0.00875,0.00637 -0.018942,0.00967 -0.029244,0.012997 -0.039689,0.012821 -0.083059,0.010545 -0.1234734,0.019496 -0.031692,0.00403 -0.087257,0.00897 -0.1169748,0.021121 -0.025997,0.010627 -0.050499,0.028048 -0.074734,0.042241 -0.013315,0.00779 -0.025863,0.016262 -0.038992,0.02437 -0.016082,0.012536 -0.032103,0.025572 -0.048739,0.037367 -0.00674,0.00477 -0.011343,0.0048 -0.016247,0.00812 -0.01576,0.019003 -0.031293,0.037915 -0.047115,0.056863 -0.018281,0.025374 -0.037634,0.05051 -0.055238,0.076358 -0.040304,0.059182 -0.056838,0.096094 -0.1039776,0.1527171 -0.020299,0.024393 -0.04644,0.048035 -0.071485,0.073109 -0.0026,0.035773 -0.00501,0.071913 -0.011373,0.1072268 -0.00586,0.032494 -0.017093,0.06169 -0.027619,0.092605 0.00846,-0.00125 -0.00518,0.00211 -0.011373,0.0065 -0.00176,0.00302 -6.31e-5,0.00484 -0.00162,0.0065 -0.00396,0.00418 -0.00967,0.00383 -0.014622,0.00487 h -0.00162 c -0.00116,1.95e-4 -0.00207,0.00152 -0.00325,0.00162 v 0.048739 c -1e-7,0.00495 0.00104,0.00978 0,0.014622 -0.00132,0.00615 -6.385e-4,0.015618 -0.0065,0.017871 -0.012483,0.00479 -0.027246,-1.863e-4 -0.040616,0 -0.017203,-0.011205 -0.011314,-0.00576 -0.02437,-0.042241 -0.00735,-0.020538 -0.00629,-0.042756 -0.00812,-0.064986 -0.00231,-0.00293 -0.00639,-0.00481 -0.00812,-0.00812 -0.0023,-0.00441 -1.29e-5,-0.013469 -0.00162,-0.019496 -0.010765,0.016676 -0.021178,0.033047 -0.030868,0.050364 -0.026771,0.04784 -0.030037,0.07081 -0.058487,0.1169748 -0.015719,0.025506 -0.041955,0.060072 -0.064986,0.081233 -0.00838,0.00769 -0.018478,0.012725 -0.027619,0.019496 -0.022843,0.019149 -0.013049,0.01097 -0.022745,0.02112 8.61e-5,0.00219 0.00143,0.00483 0,0.0065 -0.00195,0.00225 -0.00144,-4.093e-4 -0.00325,0.00162 h -0.00162 c -0.0015,0.00166 -0.00185,-0.0015 -0.00325,0 l -0.00162,0.00162 h -0.00162 v 0.02112 c -2.4e-6,0.018833 -5e-6,0.03803 0,0.056863 1.1e-6,0.00377 -1.3e-6,0.0076 0,0.011373 2.2e-6,0.00603 0.00517,0.014781 0,0.017871 8e-6,0.00212 -9.7e-6,0.00438 0,0.0065 0.00154,-0.00437 0.00335,-0.00863 0.00487,-0.012997 0.010252,-0.028087 0.014366,-0.035001 0.019496,-0.064986 0.00151,-0.00886 -7.714e-4,-0.017956 0.00325,-0.025994 0.00635,-0.012704 0.017189,-0.022935 0.025994,-0.034118 -0.00166,0.00106 -0.00288,-0.00121 -0.00487,0 -0.00114,-4.076e-4 0.00957,-0.00533 0.00812,-0.00325 -8.651e-4,0.00124 -0.00231,0.00206 -0.00325,0.00325 0.017341,-0.011021 0.019386,-0.017753 0.050364,0.00487 0.00569,0.00416 -0.00698,0.048412 -0.00812,0.051989 -0.00236,0.00854 -0.00405,0.017482 -0.0065,0.025994 -0.00319,0.01114 -0.00921,0.019312 -0.00162,0.030868 0.00544,0.00828 0.013289,0.015045 0.02112,0.02112 0.03426,0.026578 0.07524,0.044016 0.1088515,0.071485 0.043834,0.035619 0.082748,0.061466 0.1169748,0.1072268 0.00944,0.012617 0.00752,0.029307 0.00975,0.043866 0.009,0.058945 -1.736e-4,-0.019152 0.00812,0.051989 -0.012691,0.010183 -0.024331,0.022182 -0.038992,0.029244 -0.00393,0.00189 -0.00625,-0.00391 -0.00975,-0.0065 -0.00705,-0.0052 -0.015096,-0.00988 -0.02112,-0.016246 -0.014589,-0.015409 -0.022823,-0.033884 -0.029244,-0.053613 -0.00819,-0.0062 -0.015205,-0.014861 -0.02437,-0.019496 -0.019145,-0.00968 -0.040143,-0.014906 -0.060112,-0.022745 -0.03067,-0.011995 -0.060929,-0.022311 -0.09098,-0.035742 -0.023027,-0.010292 -0.044513,-0.0238 -0.066611,-0.035742 -0.00339,0.00863 -0.00624,0.017404 -0.00975,0.025994 -0.00267,0.00655 -0.011288,0.030114 -0.019496,0.035742 -0.00486,0.00333 -0.01052,0.00319 -0.016246,0.00487 -1.12e-4,6.763e-4 3.64e-5,0.00477 0,0.00487 -6.821e-4,0.00207 -0.00384,6.895e-4 -0.0065,0 V 17.505938 l 1.0365266,0.188459 0.8886833,1.791989 H 17.676545 l 0.399664,-1.889467 1.410196,0.01787 V 6.2389921 l -1.866723,-1.7172548 0.0049,-0.00812 z m -0.4077871,0.047115 c -0.00207,0.00146 -0.00238,0.00328 -0.00487,0.00487 0.00248,0.00966 0.00104,0.014234 0.00162,0.019496 0.024487,-0.0012 0.048556,-0.00229 0.073109,-0.00325 0.00637,-2.455e-4 0.012933,0.00103 0.019496,0 -0.00322,0.0015 -0.019764,0.00674 0.029244,-0.00812 0.030909,-0.00684 0.00652,-0.00365 0.034118,-0.0065 0.00119,-1.233e-4 0.0021,-0.00126 0.00325,-0.00162 8.983e-4,-4.176e-4 0.00235,4.174e-4 0.00325,0 0.00326,-0.00152 0.00648,-0.00336 0.00975,-0.00487 -0.056268,-8.02e-5 -0.1126954,2.799e-4 -0.1689636,0 z m -0.640112,0.1169748 c -0.00353,5.688e-4 -0.00779,0.00103 -0.011373,0.00162 -5.21e-4,0.00109 -0.00113,0.00215 -0.00162,0.00325 0.00299,-9.982e-4 0.00939,-0.00387 0.012997,-0.00487 z m 0.5133893,0.00975 c -0.00143,0.00182 -0.0034,0.00286 -0.00487,0.00487 -0.00516,0.00706 -0.00973,0.015497 -0.014622,0.022745 -0.01914,0.025718 -0.033063,0.054048 -0.051989,0.079608 0.0022,-3.473e-4 0.00429,-0.00125 0.0065,-0.00162 0.013563,-0.00232 0.036839,-0.00657 0.048739,-0.016247 0.0118,-0.0096 0.021809,-0.021666 0.032493,-0.032493 0.012618,-0.012789 0.024722,-0.026229 0.037367,-0.038992 0.00852,-0.00821 0.013728,-0.010536 0.019496,-0.016247 -0.013541,-0.00383 -0.028381,-0.00197 -0.042241,-0.00162 -0.010379,7.89e-5 -0.020611,2.43e-5 -0.030868,0 z m -0.081233,0.032493 c -0.00327,0.00213 -0.00651,0.00436 -0.00975,0.0065 -0.022697,0.015 -0.04296,0.032045 -0.066611,0.04549 -0.019416,0.011038 -0.040383,0.024644 -0.061737,0.027619 -0.00569,0.00645 -0.01188,0.013321 -0.017871,0.019496 -0.00108,0.00111 -0.00216,0.00214 -0.00325,0.00325 0.028721,-0.00598 0.057849,-0.012513 0.086107,-0.016246 0.00106,-2.065e-4 0.00218,1.973e-4 0.00325,0 3.075e-4,-0.00383 -0.00391,-0.00685 -0.00325,-0.011373 5.763e-4,-0.00315 0.00105,-0.0066 0.00162,-0.00975 0.0063,-0.03448 0.028109,-0.031295 0.038992,-0.012997 0.00349,-0.00412 0.00762,-0.00901 0.00812,-0.00975 0.00916,-0.013717 0.016125,-0.02818 0.02437,-0.042241 z m -0.3704196,0.198205 c -0.00941,0.007 -0.019352,0.014829 -0.029244,0.021121 -0.017018,0.010824 -0.034208,0.0181 -0.051989,0.027619 -0.00277,9.316e-4 -0.00417,8.677e-4 -0.0065,0.00162 v 0.00162 c -0.00346,0.00537 -0.00769,0.011035 -0.011373,0.016247 v 0.00162 l -0.00162,0.00162 c -0.00465,0.022307 -0.015056,0.047289 -0.022745,0.068235 -0.00388,0.010635 -0.00696,0.021946 -0.011373,0.032493 0.018292,-0.026791 0.037866,-0.051688 0.056863,-0.077983 0.0099,-0.011789 0.019542,-0.023783 0.029244,-0.035742 -7.583e-4,-0.00715 -0.00334,-0.014907 0,-0.021121 0.00618,-0.011516 0.0214,-0.014175 0.034118,-0.019496 0.00505,-0.00581 0.00938,-0.012239 0.014622,-0.017871 z M 5.001009,5.163474 c -0.00859,0.00204 -0.016274,0.00529 -0.02437,0.00812 1.8e-6,-0.00166 -2e-7,-0.00322 0,-0.00487 -0.00156,0.00141 -0.00163,0.00348 -0.00325,0.00487 -0.00204,0.00176 -0.00439,0.0032 -0.0065,0.00487 -3.3e-6,0.018924 5e-6,0.03794 0,0.056863 -1.106e-4,9.317e-4 -0.00151,0.00619 -0.00162,0.00812 C 4.986015,5.216277 4.999595,5.19253 5.014008,5.169962 5.011188,5.168332 5.007918,5.167582 5.005888,5.165092 5.004668,5.1648381 5.003858,5.163742 5.002638,5.163472 Z M 4.8970314,5.223586 c -0.01413,0.00842 -0.02569,0.01857 -0.037367,0.025994 -2e-6,0.03366 1e-6,0.067069 0,0.1007283 0.00878,-0.00855 0.015502,-0.015619 0.02437,-0.02437 0.00142,-0.017316 0.00203,-0.034847 0.00487,-0.051989 0.0026,-0.016568 0.005,-0.033887 0.00812,-0.050364 z M 4.7605609,5.3909249 c -0.00519,0.00985 -0.013107,0.020388 -0.017871,0.029244 l -0.00162,0.00162 h -0.00162 c -0.00149,0.00372 -0.00337,0.00785 -0.00487,0.011373 -9.483e-4,0.0022 -0.00223,0.00432 -0.00325,0.0065 -0.00535,0.011546 -0.012263,0.022693 -0.017871,0.034118 -0.00622,0.00994 -0.014897,0.017557 -0.022745,0.025994 1.094e-4,0.0087 -3.56e-5,0.017292 0,0.025994 3.21e-5,0.00785 0.00141,0.016646 0,0.02437 -0.00171,0.00936 -0.00667,0.016986 -0.00975,0.025994 0.016904,-0.035453 0.032883,-0.07187 0.058487,-0.102353 0.00865,-0.00912 0.017403,-0.018445 0.025994,-0.027619 -4.375e-4,-0.022453 -0.00522,-0.040196 -0.00487,-0.055238 z m -0.079608,0.1852102 -0.017871,0.02437 c -0.00415,0.00591 -0.00871,0.012068 -0.012997,0.017871 -0.012521,0.016954 -0.014047,0.017396 -0.022745,0.035742 -0.00354,0.00747 -0.00693,0.014967 -0.00975,0.022745 2.13e-5,0.00146 -2.24e-5,0.00177 0,0.00325 0.0066,-0.00881 0.014885,-0.016897 0.019496,-0.02437 0.015893,-0.025749 0.030833,-0.052273 0.043865,-0.079608 z M 4.875911,5.4022975 c -0.00557,0.00542 -0.010836,0.01095 -0.016247,0.016246 v 0.068235 c 0.00425,-0.012857 0.00891,-0.025403 0.011373,-0.038992 0.00272,-0.014989 0.00343,-0.030346 0.00487,-0.04549 z M 4.8645384,5.516023 c 8.901e-4,-0.00158 -0.00233,8.51e-4 -0.00487,0.00162 v 0.00162 c 0.00131,-0.00141 0.00393,-0.00159 0.00487,-0.00325 z M 4.5639783,5.7288521 c -3.17e-5,0.0027 3.76e-5,0.00543 0,0.00812 0.0022,-0.0014 0.00433,-0.00345 0.0065,-0.00487 -0.0022,-0.00105 -0.00418,-0.00233 -0.0065,-0.00325 z m 0.043865,0.1917086 c -0.00116,0.00318 -0.00188,0.00427 -0.00325,0.00812 -0.00688,0.019813 -0.015469,0.038831 -0.022745,0.058487 0.023825,0.013061 0.04655,0.027875 0.071485,0.038992 0.02854,0.012723 0.058628,0.022741 0.087731,0.034118 0.020207,0.0079 0.040782,0.014516 0.060112,0.02437 0.00789,0.00402 0.015688,0.00922 0.022745,0.014622 -0.026412,-0.024653 -0.064276,-0.054866 -0.082857,-0.06986 C 4.7084161,6.0033638 4.6700284,5.9868562 4.6370875,5.961177 4.6235729,5.950642 4.6160938,5.9351293 4.6078433,5.9205607 Z m -0.077983,0.00325 c -2.92e-5,0.010738 -2.7e-6,0.021755 0,0.032493 3.41e-5,0.00108 -3.05e-5,0.00217 0,0.00325 0.00316,0.00181 0.00659,0.00307 0.00975,0.00487 0.00438,-0.011892 0.00877,-0.023792 0.012997,-0.035742 -0.00758,-0.00141 -0.014998,-0.0039 -0.022745,-0.00487 z M 4.5184873,6.057032 c -0.0018,8.568e-4 -0.00317,0.00238 -0.00487,0.00325 v 0.016247 c 0.00179,-0.00762 0.00165,-0.00463 0.00487,-0.019496 z"
     id="rect4487"
     inkscape:connector-curvature="0" />
  <path
     d="M3,19V5A2,2 0 0,1 5,3H19A2,2 0 0,1 21,5V19A2,2 0 0,1 19,21H5A2,2 0 0,1 3,19M17,12L12,7V10H8V14H12V17L17,12Z"
     id="path2"
     style="fill:#ffffff" />
</svg>
